<svg id="Capa_1" enable-background="new 0 0 512 512" height="512" viewBox="0 0 512 512" width="512" xmlns="http://www.w3.org/2000/svg"><g><path d="m.036 251.645c2.316-139.373 116.823-251.779 256.215-251.645 141.269.136 255.749 114.699 255.749 256 0 54.192-16.839 104.45-45.569 145.83-2.124 3.06-5.939 4.472-9.538 3.513-37.245-9.928-77.445-15.343-119.372-15.343-88.28 0-168.91 24.006-230.402 63.599-4.661 3.001-10.713 2.655-14.971-.896-57.345-47.821-93.455-120.246-92.112-201.058z" fill="#3342ae"/><path d="m466.965 401.058c-46.165 67.013-123.435 110.942-210.965 110.942-62.783 0-120.288-22.601-164.822-60.111 12.083-61.131 5.336-132.862-20.242-182.154-3.239-6.241-6.175-12.842-8.81-19.735h370.128c2.635 6.893 5.572 13.494 8.81 19.735 7.792 15.015 13.835 32.112 18.132 50.357l-19.196 39.908 26.091 4.802c.955 12.001 1.247 24.159.874 36.256z" fill="#ffb52d"/><path d="m438.981 320.281c-41.077 64.063-107.735 105.719-182.981 105.719-30.497 0-59.584-6.843-86.128-19.246-41.29-19.294-71.486-56.081-84.27-99.827-3.892-13.317-8.781-25.848-14.667-37.191-4.533-8.735-8.474-18.175-11.824-28.136l30.6-30.6-44.34-44.34c-1.63-29.761.782-60.185 7.234-87.986 6.955-29.965 33.614-51.203 64.376-51.203h209.925c52.085 0 92.964 44.373 89.034 96.31-3.912 51.684 4.463 106.14 25.124 145.955.014.027.028.054.042.081 8.292 16.012 7.608 35.284-2.125 50.464z" fill="#ffc14f"/><path d="m170 365c0-2.761 2.239-5 5-5h180c2.761 0 5 2.239 5 5s-2.239 5-5 5h-180c-2.761 0-5-2.239-5-5zm19.615 15c-2.761 0-5 2.239-5 5s2.239 5 5 5h150.77c2.761 0 5-2.239 5-5s-2.239-5-5-5zm136.154 50c2.761 0 5-2.239 5-5s-2.239-5-5-5h-121.538c-2.761 0-5 2.239-5 5s2.239 5 5 5zm29.231-30h-180c-2.761 0-5 2.239-5 5s2.239 5 5 5h180c2.761 0 5-2.239 5-5s-2.239-5-5-5zm-29.231 60h-121.538c-2.761 0-5 2.239-5 5s2.239 5 5 5h121.539c2.761 0 5-2.239 5-5s-2.239-5-5.001-5zm29.231-20h-180c-2.761 0-5 2.239-5 5s2.239 5 5 5h180c2.761 0 5-2.239 5-5s-2.239-5-5-5z" fill="#f76937"/><path d="m312.551 263.318c-8.554 19.972-29.182 32.877-52.551 32.877-17.772 0-33.959-7.465-44.456-19.825-4.729 14.178-8.33 28.872-10.698 43.975h-52.559l-1.437-2.669 109.299-165.825h3.174l14.327 21.736c-23.389 24.415-42.305 53.15-55.43 84.888 11.872 1.949 24.606 2.991 37.78 2.991 18.126 0 35.421-1.972 50.78-5.566.637 1.208 1.229 2.447 1.771 3.714.507 1.182.507 2.521 0 3.704z" fill="#ffb52d"/><path d="m268.35 149.639c-.925-1.404-2.494-2.249-4.175-2.249h-8.35c-1.681 0-3.25.845-4.175 2.249l-105.238 159.664c-1.012 1.535-1.1 3.502-.228 5.122l4.175 7.753c.873 1.619 2.563 2.628 4.402 2.628h210.477c1.839 0 3.529-1.01 4.402-2.628l4.175-7.753c.872-1.62.784-3.587-.228-5.122zm93.902 165.167h-204.504l-1.343-2.494 102.112-154.922h2.965l102.112 154.922zm-158.098-55.309c-.539 1.257-.539 2.68 0 3.938 9.091 21.224 31.012 34.938 55.846 34.938s46.755-13.714 55.846-34.938c.539-1.257.539-2.68 0-3.938-9.091-21.225-31.012-34.939-55.846-34.939s-46.755 13.714-55.846 34.939zm101.596 1.969c-7.94 16.178-26.033 26.907-45.75 26.907s-37.81-10.729-45.75-26.907c7.94-16.179 26.033-26.908 45.75-26.908s37.81 10.729 45.75 26.908zm-65.75 0c0 11.028 8.972 20 20 20s20-8.972 20-20-8.972-20-20-20-20 8.972-20 20zm30 0c0 5.514-4.486 10-10 10s-10-4.486-10-10 4.486-10 10-10 10 4.486 10 10zm-143.248-64.287c-1.953-1.953-1.953-5.119 0-7.071 1.951-1.952 5.119-1.952 7.07 0l21.213 21.213c1.953 1.953 1.953 5.119 0 7.071-.976.976-2.256 1.464-3.535 1.464s-2.56-.488-3.535-1.464zm45.204 7.222v-30c0-2.761 2.238-5 5-5s5 2.239 5 5v30c0 2.761-2.238 5-5 5s-5-2.239-5-5zm-25.912 35.912c0 2.761-2.238 5-5 5h-30c-2.762 0-5-2.239-5-5s2.238-5 5-5h30c2.762 0 5 2.238 5 5zm210.921-21.921c-1.953-1.953-1.953-5.119 0-7.071l21.213-21.213c1.951-1.952 5.119-1.952 7.07 0 1.953 1.953 1.953 5.119 0 7.071l-21.213 21.213c-.976.976-2.256 1.464-3.535 1.464s-2.56-.488-3.535-1.464zm-26.921-13.991v-30c0-2.761 2.238-5 5-5s5 2.239 5 5v30c0 2.761-2.238 5-5 5s-5-2.239-5-5zm75.912 35.912c0 2.761-2.238 5-5 5h-30c-2.762 0-5-2.239-5-5s2.238-5 5-5h30c2.762 0 5 2.238 5 5z" fill="#1c314e"/><path d="m315.068 101.853c-.194.207-.39.413-.586.618-.195.203-.388.407-.58.613-16.126 17.308-38.874 26.916-62.53 26.916h-146.034c-3.632 0-5.943-3.875-4.23-7.078 3.917-7.327 8.86-14.22 14.827-20.451 19.66-20.527 34.065-62.471 4.065-75h162.678c38.652 0 58.868 46.224 32.39 74.382z" fill="#f1de96"/><path d="m486.651 101.853c-.194.207-.39.413-.586.618-.191.2-.381.4-.57.602-16.138 17.315-38.898 26.927-62.567 26.927h-168.445c-28.313 0-51.264-22.952-51.264-51.264 0-28.313 22.952-51.264 51.264-51.264h199.778c38.652-.001 58.868 46.223 32.39 74.381z" fill="#f5e8b4"/><path d="m44.232 278.175 5.618 11.825c.198.416.532.751.948.948l11.825 5.618c1.522.723 1.522 2.89 0 3.613l-11.825 5.618c-.416.198-.751.532-.948.948l-5.618 11.825c-.723 1.522-2.89 1.522-3.613 0l-5.618-11.825c-.198-.416-.532-.751-.948-.948l-11.825-5.618c-1.522-.723-1.522-2.89 0-3.613l11.825-5.618c.416-.198.751-.532.948-.948l5.618-11.825c.723-1.522 2.89-1.522 3.613 0z" fill="#f5e8b4"/><path d="m425.282 184.052 5.618 11.825c.198.416.532.751.948.948l11.825 5.618c1.522.723 1.522 2.89 0 3.613l-11.825 5.618c-.416.198-.751.532-.948.948l-5.618 11.825c-.723 1.522-2.89 1.522-3.613 0l-5.618-11.825c-.198-.416-.532-.751-.948-.948l-11.825-5.618c-1.522-.723-1.522-2.89 0-3.613l11.825-5.618c.416-.198.751-.532.948-.948l5.618-11.825c.723-1.522 2.89-1.522 3.613 0zm-330.079 122.411 9.161 19.282c.198.416.532.751.948.948l19.282 9.161c1.522.723 1.522 2.89 0 3.613l-19.282 9.161c-.416.198-.751.532-.948.948l-9.161 19.282c-.723 1.522-2.89 1.522-3.613 0l-9.161-19.282c-.198-.416-.532-.751-.948-.948l-19.282-9.161c-1.522-.723-1.522-2.89 0-3.613l19.282-9.161c.416-.198.751-.532.948-.948l9.161-19.282c.724-1.523 2.89-1.523 3.613 0z" fill="#fff5f5"/></g></svg>